<svg width="708" height="486" viewBox="0 0 708 486" fill="none" xmlns="http://www.w3.org/2000/svg">
<g clip-path="url(#clip0_22_1232)">
<path d="M361.59 484.721C382.884 484.721 400.146 467.942 400.146 447.244C400.146 426.546 382.884 409.767 361.59 409.767C340.295 409.767 323.033 426.546 323.033 447.244C323.033 467.942 340.295 484.721 361.59 484.721Z" fill="#F0B23A"/>
<path d="M618.136 482.586C640.849 476.29 664.995 469.724 683.008 454.757C699.104 441.382 709.97 420.958 703.302 400.9C696.648 380.883 676.716 367.536 656.136 360.897C644.464 357.132 632.253 355.043 620.047 353.402C606.778 351.618 593.45 350.157 580.128 348.75C526.187 343.056 472.043 339.577 417.697 338.314C390.88 337.691 364.069 337.706 337.248 338.065C313.296 338.386 288.07 338.378 265.849 328.981C248.57 321.674 232.887 308.38 228.073 290.911C222.515 270.745 232.766 250.208 247.471 235.603C255.223 227.905 264.282 221.425 273.627 215.468C283.766 209.004 294.258 202.998 304.977 197.392C326.089 186.356 348.161 176.964 370.964 169.313C382.212 165.538 393.628 162.28 405.143 159.275C414.867 156.738 424.62 154.197 434.017 150.74C452.184 144.057 469.462 132.737 474.081 114.178C478.459 96.5889 471.078 77.4945 458.138 64.4278C443.167 49.3105 420.594 42.6836 398.953 41.6114C374.657 40.4077 350.921 46.0202 328.085 53.1433C303.729 60.7406 279.898 69.4761 255.028 75.6299C230.365 81.7261 205.225 86.0396 179.837 88.5309C167.408 89.7525 154.604 91.1318 142.101 90.1967C131.623 89.4129 121.198 86.5685 113.476 79.7044C106.854 73.8189 102.91 65.7301 104.266 57.1941C104.512 55.6437 107.064 56.3028 106.819 57.8438C105.168 68.2346 112.821 77.8094 122.25 82.7141C133.148 88.3826 146.41 88.3903 158.543 87.742C184.851 86.2753 210.982 82.7887 236.663 77.3182C261.898 71.9982 286.232 64.3929 310.538 56.2688C333.622 48.5529 357.222 41.0222 381.884 39.351C403.283 37.9008 425.794 40.7784 444.436 51.1006C460.82 60.1724 472.868 75.3012 476.707 92.6618C480.458 109.626 475.262 126.701 461.35 138.54C446.945 150.797 427.194 156.037 408.787 160.864C385.441 166.985 362.596 174.141 340.483 183.432C318.069 192.823 296.572 203.978 276.232 216.773C256.598 229.158 237.222 244.74 231.012 266.834C228.12 277.125 228.654 288.04 233.493 297.761C237.797 306.404 244.884 313.675 253.141 319.283C272.841 332.663 297.669 335.41 321.464 335.683C348.19 335.99 374.916 335.157 401.65 335.562C456.133 336.388 510.505 339.449 564.765 344.746C578.362 346.074 591.941 347.542 605.503 349.15C617.701 350.597 629.941 352.035 641.934 354.604C663.259 359.173 684.009 367.957 697.264 384.646C703.146 391.88 706.79 400.453 707.808 409.449C708.736 418.836 706.246 428.242 701.647 436.593C691.469 455.077 672.404 466.835 652.159 474.559C641.315 478.696 630.066 481.83 618.84 484.942C617.205 485.396 616.506 483.038 618.136 482.586L618.136 482.586Z" fill="#F2F2F2"/>
<path d="M105.522 76.9517C116.632 76.9517 125.638 68.1973 125.638 57.3983C125.638 46.5993 116.632 37.845 105.522 37.845C94.4118 37.845 85.4053 46.5993 85.4053 57.3983C85.4053 68.1973 94.4118 76.9517 105.522 76.9517Z" fill="#F39746"/>
<path d="M234.081 119.021C245.191 119.021 254.198 110.267 254.198 99.4681C254.198 88.6691 245.191 79.9147 234.081 79.9147C222.971 79.9147 213.964 88.6691 213.964 99.4681C213.964 110.267 222.971 119.021 234.081 119.021Z" fill="#F16E46"/>
<path d="M350.266 43.8819C361.376 43.8819 370.382 35.1276 370.382 24.3286C370.382 13.5295 361.376 4.77521 350.266 4.77521C339.156 4.77521 330.149 13.5295 330.149 24.3286C330.149 35.1276 339.156 43.8819 350.266 43.8819Z" fill="#F39746"/>
<path d="M455.027 118.984C466.137 118.984 475.143 110.23 475.143 99.4308C475.143 88.6318 466.137 79.8775 455.027 79.8775C443.917 79.8775 434.91 88.6318 434.91 99.4308C434.91 110.23 443.917 118.984 455.027 118.984Z" fill="#F16E46"/>
<path d="M333.117 227.107C344.227 227.107 353.233 218.352 353.233 207.553C353.233 196.754 344.227 188 333.117 188C322.007 188 313 196.754 313 207.553C313 218.352 322.007 227.107 333.117 227.107Z" fill="#F39746"/>
<path d="M217.715 265.56C228.825 265.56 237.831 256.806 237.831 246.007C237.831 235.208 228.825 226.454 217.715 226.454C206.605 226.454 197.598 235.208 197.598 246.007C197.598 256.806 206.605 265.56 217.715 265.56Z" fill="#ED673E"/>
<path d="M339.826 338.07C350.936 338.07 359.942 329.316 359.942 318.517C359.942 307.718 350.936 298.964 339.826 298.964C328.715 298.964 319.709 307.718 319.709 318.517C319.709 329.316 328.715 338.07 339.826 338.07Z" fill="#F16E46"/>
<path d="M488.995 378.809C500.105 378.809 509.111 370.054 509.111 359.255C509.111 348.456 500.105 339.702 488.995 339.702C477.884 339.702 468.878 348.456 468.878 359.255C468.878 370.054 477.884 378.809 488.995 378.809Z" fill="#F16E46"/>
<path d="M655.117 358.107C666.227 358.107 675.233 349.352 675.233 338.553C675.233 327.754 666.227 319 655.117 319C644.007 319 635 327.754 635 338.553C635 349.352 644.007 358.107 655.117 358.107Z" fill="#F16E46"/>
<path d="M357.459 56.1791C297.2 56.5928 247.86 104.191 247.004 162.758C246.996 163.299 246.993 167.101 246.993 172.074C246.994 179.366 249.974 186.358 255.278 191.514C260.582 196.67 267.776 199.567 275.277 199.568C278.996 199.567 282.678 198.854 286.113 197.47C289.547 196.085 292.668 194.056 295.296 191.499C297.924 188.942 300.008 185.907 301.429 182.566C302.849 179.226 303.579 175.646 303.575 172.032C303.573 168.649 303.571 166.308 303.571 166.164C303.569 157.113 305.991 148.216 310.599 140.351C315.207 132.485 321.843 125.921 329.852 121.304C337.862 116.687 346.97 114.176 356.281 114.019C365.592 113.861 374.785 116.062 382.955 120.405C391.125 124.748 397.992 131.084 402.879 138.789C407.766 146.494 410.506 155.302 410.828 164.349C411.15 173.395 409.044 182.367 404.717 190.382C400.39 198.397 393.991 205.179 386.15 210.061L386.16 210.073C386.16 210.073 345.903 235.264 333.629 269.821L333.64 269.823C331.482 276.903 330.388 284.248 330.393 291.632C330.393 294.667 330.577 321.224 330.932 342.778C331.056 350.215 334.183 357.307 339.638 362.523C345.094 367.739 352.44 370.662 360.092 370.66C363.937 370.66 367.745 369.921 371.295 368.485C374.845 367.049 378.068 364.946 380.778 362.295C383.489 359.644 385.633 356.498 387.088 353.038C388.543 349.579 389.28 345.873 389.256 342.136C389.133 322.396 389.066 299.411 389.066 297.742C389.066 276.523 410.126 255.381 427.425 241.593C447.345 225.717 461.68 204.081 467.438 179.675C468.712 174.65 469.414 169.505 469.533 164.331C469.533 150.062 466.628 135.934 460.986 122.762C455.344 109.589 447.075 97.6314 436.658 87.5783C426.24 77.5253 413.879 69.5752 400.286 64.1863C386.694 58.7973 372.138 56.076 357.459 56.1791Z" fill="#F0B23A"/>
<path d="M526.76 223.193C540.648 223.193 551.906 212.25 551.906 198.751C551.906 185.252 540.648 174.309 526.76 174.309C512.873 174.309 501.615 185.252 501.615 198.751C501.615 212.25 512.873 223.193 526.76 223.193Z" fill="#67242C"/>
<path d="M480.294 475.049H470.018L465.129 436.523H480.296L480.294 475.049Z" fill="#FB9A9A"/>
<path d="M462.678 472.195H482.496V484.324H450.2C450.2 482.731 450.522 481.154 451.15 479.682C451.777 478.211 452.696 476.874 453.854 475.747C455.013 474.621 456.389 473.728 457.903 473.118C459.416 472.509 461.039 472.195 462.678 472.195Z" fill="#CCCCCC"/>
<path d="M559.922 475.049H549.646L544.757 436.523H559.924L559.922 475.049Z" fill="#FB9A9A"/>
<path d="M542.306 472.195H562.124V484.324H529.828C529.828 482.731 530.151 481.154 530.778 479.682C531.405 478.211 532.324 476.874 533.483 475.747C534.641 474.621 536.017 473.728 537.531 473.118C539.045 472.509 540.667 472.195 542.306 472.195V472.195Z" fill="#CCCCCC"/>
<path d="M522.939 223.334C534.309 223.334 543.526 214.375 543.526 203.324C543.526 192.272 534.309 183.313 522.939 183.313C511.569 183.313 502.352 192.272 502.352 203.324C502.352 214.375 511.569 223.334 522.939 223.334Z" fill="#FB9A9A"/>
<path d="M535.209 287.889L544.421 267.318C546.658 262.492 547.299 257.11 546.256 251.915C545.212 246.72 542.536 241.967 538.596 238.313C537.786 237.536 536.927 236.809 536.022 236.138C531.477 232.682 525.876 230.798 520.105 230.785C516.225 230.8 512.394 231.628 508.873 233.213C508.571 233.344 508.278 233.482 507.976 233.621C507.398 233.889 506.828 234.183 506.275 234.484C502.666 236.498 499.595 239.308 497.31 242.688C495.024 246.067 493.587 249.921 493.115 253.94L489.05 287.05C488.027 289.649 451.549 383.505 464.307 455.16C464.443 455.926 464.826 456.629 465.402 457.167C465.979 457.705 466.717 458.049 467.509 458.151L480.442 459.861C481.386 459.987 482.345 459.76 483.124 459.226C483.903 458.693 484.445 457.892 484.641 456.985L506.342 356.44C506.477 355.816 506.824 355.253 507.327 354.842C507.83 354.432 508.46 354.197 509.116 354.175C509.773 354.154 510.418 354.347 510.948 354.723C511.478 355.1 511.863 355.639 512.042 356.253L542.703 461.988C542.921 462.756 543.393 463.434 544.045 463.916C544.698 464.399 545.495 464.66 546.315 464.66C546.56 464.659 546.804 464.637 547.045 464.595L562.844 461.638C563.763 461.471 564.584 460.976 565.147 460.251C565.71 459.526 565.974 458.623 565.887 457.719C563.565 432.552 551.227 306.49 535.209 287.889Z" fill="#74D38E"/>
<path d="M442.933 219.976C442.79 221.166 442.917 222.372 443.306 223.508C443.694 224.645 444.334 225.685 445.181 226.555C446.027 227.426 447.06 228.105 448.206 228.545C449.352 228.985 450.583 229.176 451.813 229.104L463.321 255.984L472.025 243.442L459.763 219.839C459.501 217.839 458.494 216.001 456.931 214.675C455.369 213.348 453.36 212.625 451.285 212.642C449.211 212.659 447.215 213.415 445.675 214.766C444.136 216.118 443.16 217.972 442.933 219.976Z" fill="#FB9A9A"/>
<path d="M521.797 314.956C523.021 314.814 524.197 314.412 525.244 313.781C526.291 313.149 527.182 312.301 527.856 311.298C528.529 310.295 528.968 309.161 529.142 307.975C529.315 306.789 529.219 305.581 528.86 304.435L553.072 287.295L538.495 281.989L517.738 299.079C515.798 299.793 514.194 301.173 513.231 302.959C512.268 304.745 512.013 306.813 512.513 308.77C513.013 310.727 514.235 312.437 515.946 313.578C517.657 314.718 519.739 315.208 521.797 314.956Z" fill="#FB9A9A"/>
<path d="M482.328 273.904C481.4 273.903 480.474 273.815 479.564 273.639C477.361 273.232 475.296 272.304 473.55 270.938C471.803 269.572 470.429 267.809 469.549 265.805L453.427 246.697C453.086 246.293 452.838 245.823 452.7 245.318C452.561 244.813 452.535 244.286 452.623 243.77C452.711 243.255 452.912 242.764 453.211 242.33C453.51 241.896 453.901 241.529 454.358 241.254L465.829 234.353C466.252 234.098 466.723 233.927 467.215 233.85C467.707 233.773 468.209 233.792 468.694 233.905C469.178 234.018 469.635 234.223 470.037 234.508C470.439 234.793 470.78 235.153 471.038 235.567L482.401 253.763L504.162 238.131C505.894 237.248 507.896 237.001 509.801 237.434C511.706 237.867 513.387 238.951 514.537 240.49C515.687 242.028 516.23 243.917 516.065 245.812C515.901 247.706 515.04 249.48 513.642 250.81L491.922 270.067C489.37 272.526 485.922 273.905 482.328 273.904Z" fill="#74D38E"/>
<path d="M541.128 302.642C541.098 302.642 541.068 302.642 541.039 302.641C540.51 302.629 539.99 302.509 539.512 302.288C539.034 302.068 538.608 301.752 538.264 301.362L528.066 289.798C527.719 289.405 527.461 288.944 527.311 288.446C527.16 287.948 527.12 287.425 527.193 286.911C527.266 286.398 527.451 285.905 527.734 285.465C528.017 285.026 528.394 284.65 528.838 284.362L547.933 271.988L530.634 251.773C529.628 250.142 529.258 248.214 529.594 246.341C529.929 244.467 530.947 242.774 532.461 241.57C533.975 240.365 535.884 239.731 537.84 239.782C539.795 239.833 541.667 240.566 543.112 241.848L564.137 261.819C565.792 263.288 567.055 265.126 567.818 267.174C568.581 269.222 568.822 271.42 568.519 273.578C568.216 275.737 567.379 277.792 566.079 279.566C564.779 281.341 563.056 282.783 561.056 283.768L543.873 301.491C543.52 301.854 543.094 302.144 542.622 302.342C542.15 302.54 541.642 302.642 541.128 302.642Z" fill="#74D38E"/>
<path d="M517.704 260.033C517.541 260.033 517.377 260.023 517.215 260.002C516.505 259.919 515.834 259.638 515.283 259.195C514.732 258.752 514.323 258.164 514.105 257.502L506.442 234.666C506.25 234.089 506.279 233.463 506.525 232.905C506.77 232.348 507.215 231.895 507.778 231.631L508.026 231.517C508.252 231.413 508.475 231.31 508.703 231.211C512.276 229.601 516.166 228.76 520.105 228.748C525.218 228.758 530.218 230.218 534.49 232.95C535.062 233.32 535.462 233.895 535.604 234.549C535.745 235.203 535.616 235.886 535.245 236.449L520.87 258.338C520.533 258.858 520.066 259.286 519.512 259.583C518.958 259.879 518.336 260.034 517.704 260.033V260.033Z" fill="#E6E6E6"/>
<path d="M546.585 187.839C551.13 187.839 554.813 184.258 554.813 179.841C554.813 175.424 551.13 171.843 546.585 171.843C542.041 171.843 538.357 175.424 538.357 179.841C538.357 184.258 542.041 187.839 546.585 187.839Z" fill="#67242C"/>
<path d="M518.378 171.05C512.598 171.05 507.055 173.282 502.968 177.255C498.881 181.227 496.585 186.615 496.585 192.233V201.195H507.925L513.349 192.233L514.976 201.195H549.391L540.171 192.233C540.171 186.615 537.875 181.227 533.788 177.255C529.701 173.282 524.158 171.05 518.378 171.05V171.05Z" fill="#67242C"/>
<path d="M550.814 174.362C551.724 171.597 553.608 169.232 556.135 167.682C558.661 166.133 561.669 165.5 564.629 165.893C569.872 166.745 574.018 170.842 576.488 175.418C578.959 179.994 580.099 185.115 581.76 190.024C583.421 194.933 585.776 199.869 589.969 203.047C594.161 206.224 600.595 207.086 604.712 203.817C604.242 207.224 602.681 210.401 600.252 212.899C597.822 215.396 594.646 217.088 591.173 217.735C587.699 218.382 584.105 217.951 580.897 216.504C577.69 215.056 575.032 212.665 573.299 209.668C571.127 205.911 570.566 201.507 569.921 197.243C569.277 192.978 568.44 188.566 565.846 185.071C563.252 181.575 558.396 179.292 554.276 180.884L550.814 174.362Z" fill="#67242C"/>
<path d="M106.065 475.42L116.34 475.42L121.23 436.893L106.062 436.894L106.065 475.42Z" fill="#FFB8B8"/>
<path d="M136.159 484.695L103.863 484.696L103.862 472.567L123.681 472.567C126.99 472.566 130.164 473.844 132.504 476.119C134.844 478.393 136.159 481.478 136.159 484.695V484.695L136.159 484.695Z" fill="#CCCCCC"/>
<path d="M69.1846 475.42L79.46 475.42L84.3492 436.893L69.1821 436.894L69.1846 475.42Z" fill="#FFB8B8"/>
<path d="M99.2788 484.695L66.9827 484.696L66.9821 472.567L86.8002 472.567C90.1096 472.566 93.2835 473.844 95.6237 476.119C97.9639 478.393 99.2787 481.478 99.2788 484.695V484.695L99.2788 484.695Z" fill="#CCCCCC"/>
<path d="M78.1645 463.572L68.1272 463.059C67.6096 463.032 67.1026 462.906 66.6355 462.688C66.1684 462.47 65.7505 462.163 65.406 461.787C65.0615 461.411 64.7973 460.971 64.6287 460.495C64.46 460.019 64.3903 459.515 64.4236 459.012L76.4204 329.906L131.666 344.396L136.989 342.985L120.344 457.278C120.202 458.138 119.763 458.925 119.099 459.509C118.435 460.094 117.585 460.44 116.691 460.492L105.871 460.982C105.33 461.011 104.789 460.931 104.281 460.746C103.774 460.562 103.311 460.277 102.922 459.91C102.534 459.543 102.228 459.101 102.024 458.613C101.82 458.125 101.723 457.601 101.737 457.075L103.698 388.478C103.707 388.161 103.594 387.852 103.38 387.612C103.167 387.372 102.868 387.218 102.544 387.182C102.22 387.145 101.893 387.227 101.628 387.413C101.364 387.599 101.18 387.874 101.114 388.185L82.2066 460.542C82.0281 461.401 81.5489 462.173 80.8505 462.726C80.1521 463.28 79.2779 463.58 78.3768 463.578C78.3065 463.578 78.2357 463.576 78.1645 463.572Z" fill="#0A5FC5"/>
<path d="M107.91 224.27C119.28 224.27 128.497 215.311 128.497 204.26C128.497 193.208 119.28 184.249 107.91 184.249C96.5403 184.249 87.3232 193.208 87.3232 204.26C87.3232 215.311 96.5403 224.27 107.91 224.27Z" fill="#FFB8B8"/>
<path d="M73.6342 263.05L75.8978 310.522L76.7161 327.793C76.7487 328.545 77.0113 329.27 77.4704 329.876C77.9294 330.482 78.564 330.941 79.293 331.195L132.381 349.887C132.81 350.042 133.264 350.12 133.721 350.116C134.244 350.118 134.762 350.018 135.245 349.822C135.727 349.625 136.164 349.337 136.528 348.972C136.893 348.608 137.179 348.176 137.368 347.703C137.558 347.229 137.647 346.723 137.63 346.215L135.454 260.858C135.311 253.855 132.659 247.12 127.955 241.814C123.251 236.508 116.789 232.963 109.685 231.791C109.171 231.715 108.649 231.639 108.127 231.571C103.721 231.039 99.2494 231.453 95.0259 232.782C90.8025 234.111 86.9299 236.323 83.6807 239.263C80.3162 242.271 77.6725 245.96 75.9365 250.071C74.2005 254.181 73.4145 258.612 73.6342 263.05L73.6342 263.05Z" fill="#CCCCCC"/>
<path d="M157.741 340.414C156.485 340.035 155.338 339.377 154.391 338.49C153.443 337.604 152.723 336.515 152.285 335.31C151.848 334.105 151.707 332.817 151.873 331.549C152.039 330.282 152.507 329.069 153.24 328.009L135.238 304.74L150.773 303.806L165.487 326.045C167.062 327.229 168.158 328.914 168.583 330.805C169.008 332.696 168.734 334.671 167.81 336.386C166.886 338.1 165.37 339.443 163.529 340.18C161.688 340.916 159.638 340.999 157.741 340.414H157.741Z" fill="#FFB8B8"/>
<path d="M145.083 323.799C144.606 323.611 144.172 323.333 143.807 322.981C143.441 322.628 143.151 322.209 142.953 321.747L115.831 258.937C115.299 257.707 115.021 256.387 115.014 255.053C115.007 253.719 115.27 252.396 115.789 251.161C116.308 249.926 117.072 248.802 118.037 247.854C119.003 246.906 120.152 246.153 121.417 245.636C122.683 245.12 124.041 244.851 125.413 244.845C126.786 244.839 128.146 245.096 129.417 245.601C130.687 246.107 131.842 246.85 132.817 247.79C133.791 248.729 134.566 249.846 135.096 251.077L162.219 313.888C162.619 314.82 162.624 315.868 162.231 316.802C161.838 317.737 161.08 318.481 160.123 318.873L148.082 323.785C147.608 323.98 147.099 324.082 146.584 324.084C146.069 324.087 145.559 323.99 145.083 323.799L145.083 323.799Z" fill="#CCCCCC"/>
<path d="M101.291 321.582L127.341 273.099C127.844 272.166 128.706 271.466 129.739 271.15C130.772 270.835 131.892 270.931 132.852 271.418L170.665 290.612C171.624 291.101 172.345 291.939 172.669 292.943C172.993 293.947 172.894 295.036 172.394 295.969L146.344 344.452C145.841 345.385 144.979 346.086 143.946 346.401C142.913 346.716 141.793 346.62 140.833 346.134L103.021 326.939C102.061 326.45 101.34 325.612 101.016 324.608C100.692 323.604 100.791 322.515 101.291 321.582Z" fill="#2F2E41"/>
<path d="M118.762 299.433C118.299 298.237 117.554 297.162 116.588 296.296C115.622 295.429 114.461 294.794 113.197 294.441C111.934 294.088 110.603 294.027 109.311 294.262C108.019 294.498 106.801 295.024 105.755 295.799L80.7954 279.704L80.7529 294.834L104.462 307.798C105.771 309.256 107.566 310.22 109.533 310.521C111.5 310.821 113.513 310.439 115.219 309.441C116.925 308.443 118.215 306.893 118.863 305.063C119.511 303.233 119.475 301.24 118.762 299.433V299.433Z" fill="#FFB8B8"/>
<path d="M87.2037 302.835L66.8049 287.129C64.5981 286.409 62.6041 285.179 60.9941 283.545C59.384 281.91 58.206 279.921 57.5611 277.747C56.9162 275.573 56.8237 273.279 57.2916 271.062C57.7595 268.846 58.7738 266.773 60.2473 265.021L78.769 241.427C80.0561 239.898 81.8662 238.871 83.8685 238.532C85.8708 238.194 87.9315 238.567 89.6739 239.584C91.4164 240.601 92.7241 242.194 93.3581 244.07C93.9921 245.947 93.91 247.983 93.1269 249.806L78.4721 273.107L100.009 283.036C100.509 283.267 100.954 283.599 101.313 284.009C101.673 284.419 101.938 284.899 102.092 285.416C102.247 285.934 102.286 286.477 102.209 287.011C102.131 287.544 101.938 288.055 101.641 288.511L92.948 301.884C92.6541 302.335 92.266 302.722 91.8087 303.018C91.3515 303.314 90.8353 303.514 90.2937 303.604C90.2722 303.607 90.2505 303.611 90.2289 303.614C89.6966 303.692 89.1536 303.663 88.6333 303.529C88.1129 303.395 87.6264 303.159 87.2037 302.835V302.835Z" fill="#CCCCCC"/>
<path d="M92.3542 217.659C92.2659 217.408 92.2379 217.14 92.2723 216.877C92.3068 216.614 92.4028 216.361 92.553 216.14C92.7032 215.918 92.9036 215.733 93.1388 215.598C93.3741 215.463 93.6379 215.382 93.9102 215.362C94.4678 215.392 95.0135 215.531 95.5142 215.771C96.015 216.011 96.4605 216.347 96.8239 216.759C97.5689 217.594 98.4363 218.318 99.3981 218.908C100.394 219.396 101.745 219.326 102.312 218.396C102.845 217.522 102.48 216.353 102.157 215.338C101.336 212.756 100.877 210.079 100.791 207.378C100.698 204.363 101.136 201.217 102.853 198.866C105.069 195.831 109.032 194.679 112.782 194.763C116.532 194.846 120.221 195.971 123.936 196.683C125.218 196.928 126.725 197.054 127.583 196.088C128.495 195.06 128.16 193.398 127.772 192.011C126.766 188.412 125.698 184.691 123.359 181.784C120.83 178.764 117.218 176.787 113.25 176.252C109.44 175.793 105.573 176.22 101.966 177.497C96.0889 179.298 90.9178 182.799 87.144 187.534C83.2537 192.568 81.5726 198.896 82.4684 205.132C83.3436 210.563 86.3047 215.47 90.7546 218.864L92.3542 217.659Z" fill="#67242C"/>
</g>
<defs>
<clipPath id="clip0_22_1232">
<rect width="708" height="484.974" fill="white" transform="translate(-0.000488281 0.775208)"/>
</clipPath>
</defs>
</svg>
