<svg width="256" height="112" viewBox="0 0 256 112" fill="none" xmlns="http://www.w3.org/2000/svg">
<g clip-path="url(#clip0_39_95)">
<path fill-rule="evenodd" clip-rule="evenodd" d="M200.012 84.5346C187.037 90.4186 172.19 95.7438 155.911 100.155C87.0814 118.804 18.6931 114.051 3.16172 89.5389C-2.79426 80.139 -0.112385 69.1982 9.33988 58.2292L17.0019 59.2864C30.418 45.2364 56.3412 31.0225 89.7512 20.4993L76.36 18.6518C83.7333 16.0313 91.5205 13.5953 99.6664 11.3881C168.496 -7.26116 236.884 -2.5082 252.416 22.0041C257.269 29.6642 256.386 38.3475 250.778 47.2354C251.666 45.8283 252.436 44.4262 253.082 43.0325L246.253 42.0903C249.236 35.7475 249.25 29.6591 245.796 24.2079C231.978 2.39921 167.885 -0.949456 102.64 16.7285C37.3955 34.4064 -4.2937 66.4165 9.5246 88.2252C23.3429 110.034 87.4362 113.382 152.68 95.7048C166.161 92.0526 178.635 87.788 189.822 83.1289L200.012 84.5346Z" fill="#F0B23A"/>
<path d="M77.8764 58.279C80.1083 59.5315 81.7093 60.4405 82.6793 61.0059C84.4259 62.0967 85.2991 63.1469 85.2991 64.1571C85.2991 65.1266 84.5714 66.5004 83.116 68.2778C81.6605 70.0552 80.1811 70.9442 78.6769 70.9442C77.7549 70.9442 76.3482 70.3988 74.4562 69.308C74.2138 69.1868 73.5342 68.8032 72.4186 68.1566C71.3029 67.51 70.4297 67.0252 69.7988 66.7022C65.2869 69.611 60.2172 71.0654 54.5895 71.0654C47.0698 71.0654 40.7144 68.8432 35.5234 64.3995C30.3808 59.9557 27.8096 54.663 27.8096 48.5225C27.8096 45.1694 28.5373 42.0384 29.9927 39.1297C31.4481 36.1805 33.3887 33.7162 35.8144 31.7366C38.2401 29.757 41.0298 28.2017 44.1832 27.0705C47.3366 25.9393 50.5871 25.3737 53.9346 25.3737C61.1147 25.3737 67.3486 27.5351 72.6369 31.8578C77.9252 36.1805 80.569 41.6546 80.569 48.2801C80.569 51.6333 79.6717 54.966 77.8764 58.279ZM40.6901 48.2195C40.6901 51.815 42.0728 54.7442 44.8381 57.0064C47.652 59.2285 50.7812 60.3393 54.2257 60.3393C57.6702 60.3393 60.7751 59.2485 63.5404 57.067C66.3057 54.8854 67.6884 51.9565 67.6884 48.2801C67.6884 44.6038 66.2817 41.6546 63.4676 39.4327C60.7023 37.2107 57.5974 36.0997 54.1529 36.0997C50.7084 36.0997 47.6034 37.2309 44.8381 39.4933C42.0728 41.7152 40.6901 44.624 40.6901 48.2195ZM104.133 70.217C99.2329 70.217 95.1577 68.682 91.907 65.6114C88.7051 62.5009 87.1041 58.7232 87.1041 54.2794V43.6746C87.1041 42.705 87.1282 41.998 87.1769 41.5536C87.2737 41.1093 87.492 40.584 87.8318 39.9781C88.5108 38.8873 90.4029 38.3419 93.508 38.3419C96.9042 38.3419 98.8931 39.1095 99.4753 40.6446C99.7664 41.2911 99.9119 42.3212 99.9119 43.7352V54.34C99.9119 55.9962 100.47 57.2894 101.586 58.2184C102.75 59.1474 104.278 59.6121 106.17 59.6121C108.111 59.6121 109.663 59.1273 110.828 58.1578C112.041 57.1882 112.647 55.9156 112.647 54.34V43.614C112.647 42.6848 112.671 41.998 112.72 41.5536C112.817 41.0688 113.06 40.5234 113.447 39.9175C114.078 38.8671 115.946 38.3419 119.051 38.3419C122.107 38.3419 123.975 38.8873 124.654 39.9781C124.994 40.584 125.188 41.1294 125.236 41.6142C125.333 42.0586 125.382 42.7454 125.382 43.6746V65.1267C125.382 66.0156 125.333 66.7022 125.236 67.187C125.188 67.6312 124.969 68.1366 124.581 68.702C123.854 69.7522 121.986 70.2776 118.978 70.2776C116.018 70.2776 114.199 69.7928 113.52 68.8232C113.035 68.1366 112.792 67.3082 112.792 66.3386C112.598 66.6216 112.162 67.0252 111.483 67.5506C110.804 68.076 110.149 68.5202 109.518 68.8838C107.868 69.7728 106.073 70.217 104.133 70.217ZM131.236 43.7352C131.236 42.806 131.26 42.1192 131.309 41.6748C131.406 41.19 131.624 40.6446 131.964 40.0387C132.643 38.9883 134.535 38.4631 137.64 38.4631C139.969 38.4631 141.618 38.8065 142.589 39.4933C143.413 40.0588 143.85 40.9275 143.898 42.099C143.947 42.503 143.971 43.0888 143.971 43.8564V65.0661C143.971 65.9951 143.922 66.7022 143.826 67.187C143.777 67.6312 143.559 68.1566 143.171 68.7626C142.54 69.8128 140.672 70.3382 137.567 70.3382C134.511 70.3382 132.643 69.7928 131.964 68.702C131.624 68.096 131.406 67.5706 131.309 67.1264C131.26 66.6822 131.236 65.975 131.236 65.0055V43.7352ZM143.171 32.5244C142.831 33.0899 142.201 33.494 141.279 33.7364C140.357 33.9788 139.12 34.0999 137.567 34.0999C136.063 34.0999 134.851 33.9788 133.929 33.7364C133.007 33.494 132.352 33.0698 131.964 32.4638C131.624 31.8578 131.406 31.3326 131.309 30.8882C131.26 30.4034 131.236 29.6964 131.236 28.7672C131.236 27.8381 131.26 27.1512 131.309 26.7069C131.406 26.2221 131.624 25.6969 131.964 25.1313C132.643 24.0405 134.535 23.4951 137.64 23.4951C140.696 23.4951 142.54 24.0405 143.171 25.1313C143.559 25.7373 143.777 26.2827 143.826 26.7675C143.922 27.2118 143.971 27.8987 143.971 28.8278C143.971 29.757 143.922 30.464 143.826 30.9488C143.777 31.3932 143.559 31.9184 143.171 32.5244ZM168.923 59.6727H181.367C183.308 59.6727 184.691 59.8745 185.515 60.2787C186.389 60.6829 186.971 61.2683 187.262 62.0361C187.553 62.8039 187.698 63.8135 187.698 65.0661C187.698 66.3186 187.553 67.3282 187.262 68.096C186.971 68.8638 186.461 69.4092 185.734 69.7322C185.006 70.0152 184.351 70.197 183.769 70.2776C183.235 70.3181 182.41 70.3382 181.295 70.3382H155.024C153.326 70.3382 151.846 69.8128 150.585 68.7626C149.324 67.7124 148.693 66.4598 148.693 65.0055C148.693 63.5511 149.324 62.3191 150.585 61.3089C151.846 60.2587 153.787 58.7638 156.407 56.8246C159.026 54.8854 161.404 53.1482 163.538 51.6131C165.673 50.0375 166.837 49.1689 167.031 49.0073H156.771C154.005 49.0073 152.259 48.6235 151.531 47.8559C150.706 46.9671 150.294 45.7956 150.294 44.3412C150.294 42.8868 150.415 41.8162 150.658 41.1294C150.9 40.4022 151.191 39.877 151.531 39.5539C151.871 39.1903 152.356 38.9075 152.986 38.7055C153.811 38.5035 155.073 38.4025 156.771 38.4025H180.421C182.119 38.4025 183.599 38.9075 184.86 39.9175C186.122 40.9275 186.752 42.2 186.752 43.7352C186.752 45.23 186.025 46.5632 184.569 47.7347C183.114 48.9063 177.898 52.8856 168.923 59.6727ZM211.563 59.6727H224.007C225.948 59.6727 227.33 59.8745 228.155 60.2787C229.028 60.6829 229.61 61.2683 229.901 62.0361C230.193 62.8039 230.338 63.8135 230.338 65.0661C230.338 66.3186 230.193 67.3282 229.901 68.096C229.61 68.8638 229.101 69.4092 228.373 69.7322C227.646 70.0152 226.991 70.197 226.408 70.2776C225.875 70.3181 225.05 70.3382 223.934 70.3382H197.664C195.966 70.3382 194.486 69.8128 193.225 68.7626C191.963 67.7124 191.332 66.4598 191.332 65.0055C191.332 63.5511 191.963 62.3191 193.225 61.3089C194.486 60.2587 196.427 58.7638 199.046 56.8246C201.666 54.8854 204.044 53.1482 206.178 51.6131C208.312 50.0375 209.477 49.1689 209.671 49.0073H199.41C196.645 49.0073 194.898 48.6235 194.171 47.8559C193.346 46.9671 192.933 45.7956 192.933 44.3412C192.933 42.8868 193.055 41.8162 193.297 41.1294C193.54 40.4022 193.831 39.877 194.171 39.5539C194.51 39.1903 194.995 38.9075 195.626 38.7055C196.451 38.5035 197.712 38.4025 199.41 38.4025H223.061C224.759 38.4025 226.239 38.9075 227.5 39.9175C228.761 40.9275 229.392 42.2 229.392 43.7352C229.392 45.23 228.664 46.5632 227.209 47.7347C225.753 48.9063 220.538 52.8856 211.563 59.6727Z" fill="white"/>
</g>
<defs>
<clipPath id="clip0_39_95">
<rect width="256" height="112" fill="white" transform="translate(0.000488281)"/>
</clipPath>
</defs>
</svg>
